<svg width="38" height="38" viewBox="0 0 38 38" fill="none" xmlns="http://www.w3.org/2000/svg">
<circle cx="18.9306" cy="18.9695" r="18.6271" fill="#38CB89"/>
<g clip-path="url(#clip0_7592_28354)">
<path d="M24.6964 14.6246L22.1237 12.0976C22.09 12.0677 22.0362 12.095 22.0362 12.1401V14.4372C22.0362 14.5882 22.1586 14.7105 22.3095 14.7105H24.6555C24.6999 14.7105 24.7264 14.6573 24.6964 14.6246Z" fill="white"/>
<path d="M22.0365 27.6034V23.5924C22.0365 23.3644 22.1286 23.1457 22.2927 22.9846C22.4568 22.8235 22.6795 22.7329 22.9115 22.7329H24.4067C24.7086 22.7329 24.9533 22.4882 24.9533 22.1863V15.8304C24.9533 15.5285 24.7086 15.2838 24.4067 15.2838H21.7447C21.5837 15.2838 21.4531 15.1555 21.4531 14.9973V12.3924C21.4531 12.0905 21.2083 11.8458 20.9065 11.8458H13.5775C13.3454 11.8458 13.1227 11.9363 12.9587 12.0975C12.7946 12.2586 12.7024 12.4774 12.7024 12.7053V27.6034C12.7024 27.8313 12.7946 28.0501 12.9587 28.2112C13.1228 28.3723 13.3455 28.4629 13.5775 28.4629H22.9115C22.6795 28.4629 22.4568 28.3723 22.2927 28.2112C22.1287 28.05 22.0365 27.8313 22.0365 27.6034ZM15.3276 16.4298H22.3281C22.4892 16.4298 22.6198 16.5581 22.6198 16.7163C22.6198 16.8745 22.4892 17.0028 22.3281 17.0028H15.3276C15.1665 17.0028 15.0359 16.8745 15.0359 16.7163C15.0359 16.5581 15.1665 16.4298 15.3276 16.4298ZM15.3276 18.1488H22.3281C22.4892 18.1488 22.6198 18.2771 22.6198 18.4353C22.6198 18.5935 22.4892 18.7218 22.3281 18.7218H15.3276C15.1665 18.7218 15.0359 18.5935 15.0359 18.4353C15.0359 18.2771 15.1665 18.1488 15.3276 18.1488ZM15.3276 19.8678H22.3281C22.4892 19.8678 22.6198 19.9961 22.6198 20.1543C22.6198 20.3125 22.4892 20.4408 22.3281 20.4408H15.3276C15.1665 20.4408 15.0359 20.3125 15.0359 20.1543C15.0359 19.9961 15.1665 19.8678 15.3276 19.8678ZM18.8279 23.8789H15.3276C15.1665 23.8789 15.0359 23.7506 15.0359 23.5924C15.0359 23.4341 15.1665 23.3059 15.3276 23.3059H18.8279C18.989 23.3059 19.1196 23.4341 19.1196 23.5924C19.1196 23.7506 18.989 23.8789 18.8279 23.8789ZM18.8279 22.1598H15.3276C15.1665 22.1598 15.0359 22.0316 15.0359 21.8733C15.0359 21.7151 15.1665 21.5868 15.3276 21.5868H18.8279C18.989 21.5868 19.1196 21.7151 19.1196 21.8733C19.1196 22.0316 18.989 22.1598 18.8279 22.1598Z" fill="white"/>
<path d="M24.37 23.4424C24.37 23.3669 24.4312 23.3057 24.5067 23.3057H25.4001C25.4756 23.3057 25.5368 23.3669 25.5368 23.4424V24.3151C25.5368 24.3906 25.4756 24.4517 25.4001 24.4517H24.5067C24.4312 24.4517 24.37 24.3906 24.37 24.3151V23.4424Z" fill="white"/>
<path d="M26.9947 23.3057H26.393C26.242 23.3057 26.1197 23.4281 26.1197 23.579V24.7382C26.1197 24.8142 26.0889 24.8871 26.0343 24.9408C25.9796 24.9946 25.9053 25.0247 25.828 25.0247H24.0779C23.9168 25.0247 23.7862 24.8965 23.7862 24.7382V23.579C23.7862 23.4281 23.6638 23.3057 23.5129 23.3057H22.9111C22.75 23.3057 22.6194 23.434 22.6194 23.5922V27.6033C22.6194 27.6792 22.6501 27.7521 22.7048 27.8059C22.7595 27.8596 22.8338 27.8898 22.9111 27.8898H26.9947C27.0721 27.8898 27.1463 27.8596 27.201 27.8059C27.2557 27.7521 27.2864 27.6792 27.2864 27.6033V23.5922C27.2864 23.5163 27.2557 23.4433 27.201 23.3896C27.1463 23.3359 27.0721 23.3057 26.9947 23.3057Z" fill="white"/>
</g>
<defs>
<clipPath id="clip0_7592_28354">
<rect width="15.9661" height="18.0949" fill="white" transform="translate(12.012 10.9861)"/>
</clipPath>
</defs>
</svg>
