<svg width="18" height="21" viewBox="0 0 18 21" fill="none" xmlns="http://www.w3.org/2000/svg">
<path d="M17.2272 7.21999C16.2187 2.73027 12.3011 0.722992 8.8684 0.722992C8.8684 0.722992 8.8684 0.722992 8.8587 0.722992C5.43565 0.722992 1.52776 2.73027 0.509573 7.21029C-0.634674 12.214 2.42958 16.4515 5.20293 19.1279C6.23081 20.117 7.5496 20.6116 8.8684 20.6116C10.1872 20.6116 11.506 20.117 12.5242 19.1279C15.2975 16.4515 18.3618 12.2236 17.2272 7.21999ZM12.049 8.02484L8.17021 11.9036C8.02476 12.0491 7.84051 12.117 7.65627 12.117C7.47203 12.117 7.28778 12.0491 7.14233 11.9036L5.68778 10.4491C5.40656 10.1679 5.40656 9.70243 5.68778 9.42121C5.96899 9.14 6.43445 9.14 6.71566 9.42121L7.65627 10.3618L11.0211 6.99696C11.3023 6.71575 11.7678 6.71575 12.049 6.99696C12.3302 7.27817 12.3302 7.74363 12.049 8.02484Z" fill="#38CB89"/>
</svg>
